<svg width="48" height="48" viewBox="0 0 48 48" fill="none" xmlns="http://www.w3.org/2000/svg">
<mask id="path-1-outside-1_3_204" maskUnits="userSpaceOnUse" x="6.00024" y="1.99976" width="40" height="38" fill="black">
<rect fill="white" x="6.00024" y="1.99976" width="40" height="38"/>
<path d="M32.2 26.7179L33.112 25.8119C34.372 24.5599 36.334 24.3019 37.946 25.1779L41.766 27.2559C44.22 28.5899 44.762 31.8599 42.844 33.7659L40.004 36.5899C39.28 37.3099 38.384 37.8339 37.352 37.9299M8.00596 11.4899C7.93596 10.2499 8.51596 9.13389 9.38396 8.26989L12.524 5.14989C14.272 3.40989 17.22 3.67989 18.746 5.71789L21.268 9.08589C22.502 10.7339 22.368 12.9899 20.954 14.3939L20.382 14.9659"/>
</mask>
<path d="M33.112 25.8119L34.1691 26.876L34.1692 26.8759L33.112 25.8119ZM37.946 25.1779L38.6627 23.8602L38.6622 23.8599L37.946 25.1779ZM41.766 27.2559L41.0492 28.5736L41.0496 28.5738L41.766 27.2559ZM42.844 33.7659L41.7866 32.7019L41.7863 32.7022L42.844 33.7659ZM40.004 36.5899L38.9463 35.5262L38.9462 35.5263L40.004 36.5899ZM9.38396 8.26989L8.32669 7.20585L8.32575 7.20678L9.38396 8.26989ZM12.524 5.14989L13.5812 6.21393L13.5822 6.21298L12.524 5.14989ZM18.746 5.71789L17.5452 6.61695L17.5453 6.61698L18.746 5.71789ZM21.268 9.08589L22.4687 8.18682L22.4686 8.1868L21.268 9.08589ZM20.954 14.3939L19.8971 13.3295L19.8933 13.3332L20.954 14.3939ZM33.2571 27.782L34.1691 26.876L32.0548 24.7477L31.1428 25.6537L33.2571 27.782ZM34.1692 26.8759C34.9385 26.1115 36.1742 25.9223 37.2297 26.4959L38.6622 23.8599C36.4937 22.6815 33.8054 23.0083 32.0547 24.7479L34.1692 26.8759ZM37.2292 26.4956L41.0492 28.5736L42.4827 25.9382L38.6627 23.8602L37.2292 26.4956ZM41.0496 28.5738C42.6864 29.4636 42.9405 31.5553 41.7866 32.7019L43.9013 34.8299C46.5834 32.1645 45.7535 27.7162 42.4824 25.938L41.0496 28.5738ZM41.7863 32.7022L38.9463 35.5262L41.0616 37.6535L43.9016 34.8295L41.7863 32.7022ZM38.9462 35.5263C38.3955 36.074 37.807 36.3811 37.213 36.4363L37.4909 39.4234C38.9609 39.2867 40.1644 38.5458 41.0617 37.6535L38.9462 35.5263ZM9.50357 11.4053C9.46447 10.7127 9.78104 9.99107 10.4422 9.333L8.32575 7.20678C7.25087 8.27671 6.40744 9.78705 6.50834 11.5744L9.50357 11.4053ZM10.4412 9.33393L13.5812 6.21393L11.4667 4.08585L8.32669 7.20585L10.4412 9.33393ZM13.5822 6.21298C14.6439 5.15611 16.5315 5.26303 17.5452 6.61695L19.9467 4.81883C17.9084 2.09675 13.9 1.66367 11.4657 4.0868L13.5822 6.21298ZM17.5453 6.61698L20.0673 9.98498L22.4686 8.1868L19.9466 4.8188L17.5453 6.61698ZM20.0673 9.98496C20.8752 11.064 20.7542 12.4784 19.8971 13.3295L22.0108 15.4583C23.9817 13.5014 24.1287 10.4038 22.4687 8.18682L20.0673 9.98496ZM19.8933 13.3332L19.3213 13.9052L21.4426 16.0266L22.0146 15.4546L19.8933 13.3332Z" fill="#FBB91D" mask="url(#path-1-outside-1_3_204)"/>
<g opacity="0.5">
<mask id="path-3-outside-2_3_204" maskUnits="userSpaceOnUse" x="6.00586" y="10.4919" width="32" height="30" fill="black">
<rect fill="white" x="6.00586" y="10.4919" width="32" height="30"/>
<path d="M37.3519 37.9299C34.0919 38.2339 26.1239 37.8979 17.6319 29.4539C9.62186 21.4899 8.18586 14.6639 8.00586 11.4919"/>
</mask>
<path d="M17.6319 29.4539L18.6895 28.3903L18.6895 28.3902L17.6319 29.4539ZM37.2126 36.4364C34.3118 36.7069 26.8109 36.4657 18.6895 28.3903L16.5742 30.5176C25.4368 39.3301 33.8719 39.761 37.4911 39.4235L37.2126 36.4364ZM18.6895 28.3902C10.9459 20.6912 9.66282 14.2155 9.50345 11.407L6.50827 11.5769C6.70889 15.1124 8.29778 22.2887 16.5743 30.5177L18.6895 28.3902Z" fill="#FBB91D" mask="url(#path-3-outside-2_3_204)"/>
</g>
<g opacity="0.5">
<mask id="path-5-outside-3_3_204" maskUnits="userSpaceOnUse" x="17.9944" y="12.9639" width="16" height="16" fill="black">
<rect fill="white" x="17.9944" y="12.9639" width="16" height="16"/>
<path d="M32.1999 26.7179C32.1999 26.7179 30.0359 28.8699 24.1259 22.9939C18.2159 17.1179 20.3819 14.9639 20.3819 14.9639"/>
</mask>
<path d="M33.2576 27.7815C33.845 27.1973 33.8476 26.2476 33.2635 25.6602C32.6793 25.0727 31.7296 25.0701 31.1422 25.6543L33.2576 27.7815ZM21.4396 16.0275C22.027 15.4433 22.0296 14.4936 21.4455 13.9062C20.8613 13.3187 19.9116 13.3161 19.3242 13.9003L21.4396 16.0275ZM32.1999 26.7179C31.1422 25.6543 31.1436 25.6529 31.145 25.6515C31.1455 25.651 31.1469 25.6496 31.1478 25.6487C31.1496 25.6469 31.1515 25.6451 31.1533 25.6433C31.1569 25.6398 31.1604 25.6364 31.1639 25.6331C31.1708 25.6266 31.1774 25.6204 31.1836 25.6148C31.1961 25.6034 31.2073 25.5937 31.2171 25.5855C31.2369 25.5692 31.2514 25.5587 31.2606 25.5526C31.2793 25.5401 31.2755 25.5456 31.2459 25.5566C31.1972 25.5748 31.0011 25.6373 30.6068 25.5767C29.7804 25.4499 28.0396 24.7698 25.1835 21.9302L23.0683 24.0576C26.1222 27.0939 28.4183 28.2759 30.1515 28.542C31.0369 28.6779 31.7512 28.5697 32.2929 28.368C32.5586 28.2691 32.77 28.1524 32.9301 28.0451C33.01 27.9916 33.0768 27.9407 33.1311 27.8957C33.1583 27.8732 33.1823 27.8521 33.2034 27.833C33.2139 27.8234 33.2237 27.8143 33.2327 27.8057C33.2372 27.8014 33.2415 27.7972 33.2457 27.7932C33.2478 27.7912 33.2498 27.7892 33.2518 27.7872C33.2528 27.7862 33.2542 27.7848 33.2547 27.7843C33.2562 27.7829 33.2576 27.7815 32.1999 26.7179ZM25.1835 21.9302C22.3265 19.0896 21.6462 17.3608 21.5199 16.5457C21.4598 16.1577 21.5223 15.9667 21.5394 15.9213C21.55 15.8932 21.555 15.8903 21.5421 15.9093C21.5358 15.9186 21.5252 15.9332 21.5087 15.9529C21.5005 15.9627 21.4907 15.9739 21.4793 15.9863C21.4736 15.9925 21.4674 15.999 21.4608 16.0059C21.4575 16.0093 21.4541 16.0128 21.4506 16.0164C21.4488 16.0182 21.447 16.0201 21.4452 16.0219C21.4443 16.0228 21.4429 16.0242 21.4424 16.0247C21.441 16.0261 21.4396 16.0275 20.3819 14.9639C19.3242 13.9003 19.3227 13.9017 19.3213 13.9031C19.3208 13.9036 19.3194 13.9051 19.3184 13.906C19.3164 13.908 19.3144 13.91 19.3124 13.9121C19.3084 13.9162 19.3042 13.9205 19.2998 13.925C19.2912 13.934 19.282 13.9437 19.2724 13.9542C19.2531 13.9751 19.2319 13.9991 19.2093 14.0261C19.1639 14.0802 19.1125 14.1468 19.0586 14.2265C18.9503 14.3863 18.8323 14.5975 18.7322 14.8632C18.5278 15.4053 18.4182 16.12 18.5553 17.005C18.8235 18.736 20.0152 21.0221 23.0683 24.0576L25.1835 21.9302Z" fill="#FBB91D" mask="url(#path-5-outside-3_3_204)"/>
</g>
</svg>
