<svg width="36" height="36" viewBox="0 0 36 36" fill="none" xmlns="http://www.w3.org/2000/svg">
<rect width="36" height="36" rx="8" fill="black"/>
<path d="M22.5 8.625H13.5C12.2071 8.625 10.9671 9.13861 10.0529 10.0529C9.13861 10.9671 8.625 12.2071 8.625 13.5V22.5C8.625 23.7929 9.13861 25.0329 10.0529 25.9471C10.9671 26.8614 12.2071 27.375 13.5 27.375H22.5C23.7929 27.375 25.0329 26.8614 25.9471 25.9471C26.8614 25.0329 27.375 23.7929 27.375 22.5V13.5C27.375 12.2071 26.8614 10.9671 25.9471 10.0529C25.0329 9.13861 23.7929 8.625 22.5 8.625ZM18.375 26.625V20.25C18.375 20.1505 18.3355 20.0552 18.2652 19.9848C18.1948 19.9145 18.0995 19.875 18 19.875H16.125V17.625H18C18.0995 17.625 18.1948 17.5855 18.2652 17.5152C18.3355 17.4448 18.375 17.3495 18.375 17.25V14.25C18.375 13.7527 18.5725 13.2758 18.9242 12.9242C19.2758 12.5725 19.7527 12.375 20.25 12.375H23.25V14.625H21.75C21.4516 14.625 21.1655 14.7435 20.9545 14.9545C20.7435 15.1655 20.625 15.4516 20.625 15.75V17.25C20.625 17.3495 20.6645 17.4448 20.7348 17.5152C20.8052 17.5855 20.9005 17.625 21 17.625H23.25V19.875H21C20.9005 19.875 20.8052 19.9145 20.7348 19.9848C20.6645 20.0552 20.625 20.1505 20.625 20.25V26.625H18.375ZM26.625 22.5C26.625 23.594 26.1904 24.6432 25.4168 25.4168C24.6432 26.1904 23.594 26.625 22.5 26.625H21.375V20.625H23.625C23.7245 20.625 23.8198 20.5855 23.8902 20.5152C23.9605 20.4448 24 20.3495 24 20.25V17.25C24 17.1505 23.9605 17.0552 23.8902 16.9848C23.8198 16.9145 23.7245 16.875 23.625 16.875H21.375V15.75C21.375 15.6505 21.4145 15.5552 21.4848 15.4848C21.5552 15.4145 21.6505 15.375 21.75 15.375H23.625C23.7245 15.375 23.8198 15.3355 23.8902 15.2652C23.9605 15.1948 24 15.0995 24 15V12C24 11.9005 23.9605 11.8052 23.8902 11.7348C23.8198 11.6645 23.7245 11.625 23.625 11.625H20.25C19.5538 11.625 18.8861 11.9016 18.3938 12.3938C17.9016 12.8861 17.625 13.5538 17.625 14.25V16.875H15.75C15.6505 16.875 15.5552 16.9145 15.4848 16.9848C15.4145 17.0552 15.375 17.1505 15.375 17.25V20.25C15.375 20.3495 15.4145 20.4448 15.4848 20.5152C15.5552 20.5855 15.6505 20.625 15.75 20.625H17.625V26.625H13.5C12.406 26.625 11.3568 26.1904 10.5832 25.4168C9.8096 24.6432 9.375 23.594 9.375 22.5V13.5C9.375 12.406 9.8096 11.3568 10.5832 10.5832C11.3568 9.8096 12.406 9.375 13.5 9.375H22.5C23.594 9.375 24.6432 9.8096 25.4168 10.5832C26.1904 11.3568 26.625 12.406 26.625 13.5V22.5Z" fill="#FBB91D"/>
</svg>
