<svg width="36" height="36" viewBox="0 0 36 36" fill="none" xmlns="http://www.w3.org/2000/svg">
<rect width="36" height="36" rx="8" fill="black"/>
<path d="M9 17C9 13.229 9 11.343 10.172 10.172C11.343 9 13.229 9 17 9H19C22.771 9 24.657 9 25.828 10.172C27 11.343 27 13.229 27 17V19C27 22.771 27 24.657 25.828 25.828C24.657 27 22.771 27 19 27H17C13.229 27 11.343 27 10.172 25.828C9 24.657 9 22.771 9 19V17Z" stroke="#FBB91D"/>
<path d="M22.5 15C23.3284 15 24 14.3284 24 13.5C24 12.6716 23.3284 12 22.5 12C21.6716 12 21 12.6716 21 13.5C21 14.3284 21.6716 15 22.5 15Z" fill="#FBB91D"/>
<path d="M18 21.5C19.933 21.5 21.5 19.933 21.5 18C21.5 16.067 19.933 14.5 18 14.5C16.067 14.5 14.5 16.067 14.5 18C14.5 19.933 16.067 21.5 18 21.5Z" stroke="#FBB91D"/>
</svg>
