<svg width="36" height="36" viewBox="0 0 36 36" fill="none" xmlns="http://www.w3.org/2000/svg">
<rect width="36" height="36" rx="8" fill="black"/>
<path d="M22.5 8.625H13.5C12.2071 8.625 10.9671 9.13861 10.0529 10.0529C9.13861 10.9671 8.625 12.2071 8.625 13.5V22.5C8.625 23.7929 9.13861 25.0329 10.0529 25.9471C10.9671 26.8614 12.2071 27.375 13.5 27.375H22.5C23.7929 27.375 25.0329 26.8614 25.9471 25.9471C26.8614 25.0329 27.375 23.7929 27.375 22.5V13.5C27.375 12.2071 26.8614 10.9671 25.9471 10.0529C25.0329 9.13861 23.7929 8.625 22.5 8.625ZM26.625 22.5C26.625 23.594 26.1904 24.6432 25.4168 25.4168C24.6432 26.1904 23.594 26.625 22.5 26.625H13.5C12.406 26.625 11.3568 26.1904 10.5832 25.4168C9.8096 24.6432 9.375 23.594 9.375 22.5V13.5C9.375 12.406 9.8096 11.3568 10.5832 10.5832C11.3568 9.8096 12.406 9.375 13.5 9.375H22.5C23.594 9.375 24.6432 9.8096 25.4168 10.5832C26.1904 11.3568 26.625 12.406 26.625 13.5V22.5Z" fill="#FBB91D"/>
<path d="M14.25 15.375H11.625C11.5255 15.375 11.4302 15.4145 11.3598 15.4848C11.2895 15.5552 11.25 15.6505 11.25 15.75V24.375C11.25 24.4745 11.2895 24.5698 11.3598 24.6402C11.4302 24.7105 11.5255 24.75 11.625 24.75H14.25C14.3495 24.75 14.4448 24.7105 14.5152 24.6402C14.5855 24.5698 14.625 24.4745 14.625 24.375V15.75C14.625 15.6505 14.5855 15.5552 14.5152 15.4848C14.4448 15.4145 14.3495 15.375 14.25 15.375ZM13.875 24H12V16.125H13.875V24Z" fill="#FBB91D"/>
<path d="M21.75 15.3751C20.8209 15.4048 19.9158 15.6776 19.125 16.1663V15.7501C19.125 15.6506 19.0855 15.5552 19.0152 15.4849C18.9448 15.4146 18.8495 15.3751 18.75 15.3751H16.125C16.0255 15.3751 15.9302 15.4146 15.8598 15.4849C15.7895 15.5552 15.75 15.6506 15.75 15.7501V24.3751C15.75 24.4745 15.7895 24.5699 15.8598 24.6402C15.9302 24.7105 16.0255 24.7501 16.125 24.7501H18.75C18.8495 24.7501 18.9448 24.7105 19.0152 24.6402C19.0855 24.5699 19.125 24.4745 19.125 24.3751V18.6788C19.4753 18.5018 19.8582 18.3984 20.25 18.3751C21.3038 18.3751 21.375 19.1251 21.375 19.2901V24.3751C21.375 24.4745 21.4145 24.5699 21.4848 24.6402C21.5552 24.7105 21.6505 24.7501 21.75 24.7501H24.375C24.4745 24.7501 24.5698 24.7105 24.6402 24.6402C24.7105 24.5699 24.75 24.4745 24.75 24.3751V18.4388C24.7766 18.0226 24.7192 17.6053 24.5814 17.2117C24.4435 16.8181 24.2279 16.4562 23.9475 16.1476C23.6521 15.8775 23.3051 15.6699 22.9275 15.5372C22.5499 15.4045 22.1494 15.3493 21.75 15.3751ZM24 24.0001H22.125V19.2901C22.125 18.7126 21.75 17.6251 20.25 17.6251C19.6641 17.6567 19.0932 17.8222 18.5812 18.1088C18.5194 18.14 18.4674 18.1876 18.431 18.2466C18.3946 18.3055 18.3752 18.3733 18.375 18.4426V24.0001H16.5V16.1251H18.375V16.8976C18.3751 16.9696 18.3959 17.0401 18.4351 17.1007C18.4742 17.1612 18.5299 17.2091 18.5956 17.2388C18.6613 17.2685 18.7341 17.2786 18.8054 17.268C18.8767 17.2573 18.9434 17.2264 18.9975 17.1788C19.7752 16.5362 20.742 16.1661 21.75 16.1251C22.0491 16.1018 22.3498 16.1386 22.6344 16.2333C22.9191 16.3279 23.1819 16.4786 23.4075 16.6763C23.6184 16.916 23.7793 17.1953 23.8811 17.4979C23.9828 17.8006 24.0232 18.1204 24 18.4388V24.0001Z" fill="#FBB91D"/>
<path d="M12.9375 11.25C12.6037 11.25 12.2775 11.349 12 11.5344C11.7225 11.7198 11.5062 11.9834 11.3785 12.2917C11.2507 12.6001 11.2173 12.9394 11.2824 13.2667C11.3475 13.5941 11.5083 13.8947 11.7443 14.1307C11.9803 14.3667 12.2809 14.5275 12.6083 14.5926C12.9356 14.6577 13.2749 14.6243 13.5833 14.4965C13.8916 14.3688 14.1552 14.1525 14.3406 13.875C14.526 13.5975 14.625 13.2713 14.625 12.9375C14.625 12.4899 14.4472 12.0607 14.1307 11.7443C13.8143 11.4278 13.3851 11.25 12.9375 11.25ZM12.9375 13.875C12.7521 13.875 12.5708 13.82 12.4167 13.717C12.2625 13.614 12.1423 13.4676 12.0714 13.2963C12.0004 13.125 11.9818 12.9365 12.018 12.7546C12.0542 12.5727 12.1435 12.4057 12.2746 12.2746C12.4057 12.1435 12.5727 12.0542 12.7546 12.018C12.9365 11.9818 13.125 12.0004 13.2963 12.0714C13.4676 12.1423 13.614 12.2625 13.717 12.4167C13.82 12.5708 13.875 12.7521 13.875 12.9375C13.875 13.1861 13.7762 13.4246 13.6004 13.6004C13.4246 13.7762 13.1861 13.875 12.9375 13.875Z" fill="#FBB91D"/>
</svg>
