<svg width="29" height="38" viewBox="0 0 29 38" fill="none" xmlns="http://www.w3.org/2000/svg">
<path fill-rule="evenodd" clip-rule="evenodd" d="M14.2143 37.1629L15.6566 35.5377C17.2931 33.665 18.7659 31.8829 20.0749 30.1914L21.156 28.7651C25.671 22.6836 27.9286 17.8585 27.9286 14.2897C27.9286 6.67371 21.7891 0.5 14.2143 0.5C6.63943 0.5 0.5 6.67371 0.5 14.2897C0.5 17.8585 2.75752 22.6844 7.27257 28.7674L8.35371 30.1937C10.2224 32.5875 12.1772 34.9106 14.2143 37.1629Z" stroke="#FBB91D" stroke-linecap="round" stroke-linejoin="round"/>
<path d="M14.2143 19.9286C17.3702 19.9286 19.9286 17.3702 19.9286 14.2143C19.9286 11.0584 17.3702 8.5 14.2143 8.5C11.0584 8.5 8.5 11.0584 8.5 14.2143C8.5 17.3702 11.0584 19.9286 14.2143 19.9286Z" stroke="#FBB91D" stroke-linecap="round" stroke-linejoin="round"/>
</svg>
