<svg width="48" height="48" viewBox="0 0 48 48" fill="none" xmlns="http://www.w3.org/2000/svg">
<path d="M32.968 23.952L45.27 13.264V34.518L32.968 23.952ZM17.116 25.762L21.436 29.512C22.114 30.088 22.998 30.436 23.964 30.436H23.998H24.024C24.992 30.436 25.876 30.086 26.562 29.506L26.556 29.51L30.876 25.76L44.008 37.038H3.99L17.116 25.762ZM3.972 10.73H44.032L24.79 27.442C24.5746 27.6148 24.3062 27.7081 24.03 27.706H24.002H23.976C23.6989 27.708 23.4297 27.614 23.214 27.44L23.216 27.442L3.972 10.73ZM2.73 13.262L15.03 23.95L2.73 34.51V13.262ZM45.93 8.38C45.45 8.14 44.886 8 44.288 8H3.718C3.13857 8.00229 2.56735 8.13706 2.048 8.394L2.07 8.384C1.44973 8.69096 0.927392 9.16487 0.561709 9.75244C0.196026 10.34 0.00149872 11.0179 0 11.71L0 36.054C0.00105881 37.0392 0.392905 37.9838 1.08956 38.6804C1.78622 39.3771 2.73078 39.7689 3.716 39.77H44.282C45.2672 39.7689 46.2118 39.3771 46.9084 38.6804C47.6051 37.9838 47.9969 37.0392 47.998 36.054V11.71C47.998 10.256 47.16 8.996 45.94 8.39L45.918 8.38H45.93Z" fill="#FBB91D"/>
</svg>
