<svg width="36" height="36" viewBox="0 0 36 36" fill="none" xmlns="http://www.w3.org/2000/svg">
<rect width="36" height="36" rx="8" fill="black"/>
<path d="M25.913 11.3219C26.1017 11.3235 26.2863 11.3766 26.4469 11.4756C26.6074 11.5745 26.7379 11.7155 26.8241 11.8833C26.9103 12.0511 26.949 12.2392 26.9359 12.4274C26.9229 12.6156 26.8586 12.7966 26.75 12.9509L25.708 14.4319C25.644 19.5179 23.943 22.9709 20.652 24.6959C19.084 25.4759 17.3511 25.8666 15.6 25.8349C13.4349 25.8848 11.2953 25.3589 9.40004 24.3109C9.27254 24.2252 9.174 24.1029 9.11741 23.9601C9.06082 23.8173 9.04884 23.6607 9.08304 23.5109C9.11532 23.359 9.19275 23.2205 9.30518 23.1134C9.41761 23.0063 9.55978 22.9357 9.71304 22.9109C10.9863 22.7331 12.2401 22.4364 13.458 22.0249C8.00004 19.4999 9.19004 13.8239 9.71004 12.0809C9.76074 11.9078 9.85606 11.7512 9.98643 11.6266C10.1168 11.5021 10.2777 11.414 10.4528 11.3712C10.628 11.3285 10.8113 11.3325 10.9844 11.383C11.1576 11.4335 11.3143 11.5287 11.439 11.6589C13.0366 13.3052 15.1549 14.3476 17.434 14.6089C17.3937 13.9964 17.4885 13.3826 17.7116 12.8108C17.9346 12.239 18.2806 11.7232 18.725 11.2999C19.4951 10.5691 20.5174 10.1633 21.5791 10.167C22.6407 10.1707 23.6601 10.5837 24.425 11.3199L25.913 11.3219ZM10.521 23.7939C12.383 24.6659 16.747 25.6129 20.188 23.8099C23.143 22.2609 24.664 19.0779 24.709 14.3489C24.711 14.1925 24.7605 14.0404 24.851 13.9129L25.932 12.3749L25.891 12.3219C25.373 12.3149 24.862 12.3079 24.341 12.3219C24.138 12.3168 23.9437 12.2383 23.794 12.1009C23.2184 11.5174 22.4368 11.183 21.6173 11.1695C20.7977 11.156 20.0056 11.4646 19.411 12.0289C19.0289 12.3918 18.7433 12.8443 18.58 13.3455C18.4168 13.8466 18.381 14.3805 18.476 14.8989C18.4932 14.9955 18.4882 15.0947 18.4615 15.189C18.4349 15.2834 18.3872 15.3706 18.322 15.4439C18.2595 15.5178 18.1797 15.5751 18.0897 15.6109C17.9997 15.6466 17.9023 15.6597 17.806 15.6489C15.1192 15.4618 12.5962 14.2883 10.722 12.3539C10.052 14.4319 9.20204 19.4479 14.591 21.4189C14.7046 21.4594 14.8041 21.5316 14.8779 21.6269C14.9516 21.7223 14.9964 21.8368 15.007 21.9569C15.0186 22.075 14.9966 22.194 14.9435 22.3001C14.8905 22.4063 14.8085 22.4953 14.707 22.5569C13.39 23.1987 11.9754 23.6167 10.521 23.7939Z" fill="#FBB91D"/>
</svg>
