<svg width="203" height="58" viewBox="0 0 203 58" fill="none" xmlns="http://www.w3.org/2000/svg">
<g clip-path="url(#clip0_1_5)">
<mask id="mask0_1_5" style="mask-type:luminance" maskUnits="userSpaceOnUse" x="0" y="0" width="203" height="58">
<path d="M203 0H0V58H203V0Z" fill="white"/>
</mask>
<g mask="url(#mask0_1_5)">
<path fill-rule="evenodd" clip-rule="evenodd" d="M172.346 29.9826C172.356 31.5671 172.062 33.1385 171.48 34.6108C170.926 36.0161 170.125 37.3091 169.115 38.4274C168.129 39.5193 166.942 40.4078 165.619 41.0433C164.29 41.6797 162.837 42.0098 161.365 42.0098C159.894 42.0098 158.44 41.6797 157.112 41.0433C155.8 40.4089 154.619 39.5292 153.634 38.4508C152.619 37.3364 151.817 36.043 151.269 34.6356C150.411 32.4493 150.178 30.0651 150.595 27.7525C151.013 25.4398 152.064 23.2907 153.631 21.5479C154.614 20.4605 155.796 19.5737 157.112 18.936C158.446 18.2997 159.904 17.9697 161.38 17.9697C162.856 17.9697 164.314 18.2997 165.649 18.936C166.969 19.5691 168.153 20.458 169.132 21.5519C170.135 22.6765 170.929 23.9727 171.478 25.3792C172.057 26.8469 172.351 28.4128 172.344 29.992M168.031 29.992C168.036 29.0177 167.852 28.0518 167.49 27.148C167.147 26.2795 166.652 25.4799 166.029 24.7869C165.427 24.1226 164.705 23.5803 163.9 23.1892C163.113 22.8024 162.248 22.6028 161.372 22.6056C160.486 22.6006 159.611 22.8002 158.814 23.1892C158.008 23.5797 157.285 24.1221 156.682 24.7869C156.061 25.4766 155.571 26.2753 155.237 27.1433C154.884 28.0507 154.705 29.0174 154.709 29.992C154.703 30.9783 154.882 31.9571 155.237 32.8762C155.571 33.7442 156.061 34.5429 156.682 35.2326C157.28 35.8939 158.002 36.4302 158.805 36.8109C159.607 37.1913 160.483 37.3861 161.369 37.381C162.245 37.384 163.11 37.1892 163.901 36.8109C164.705 36.4299 165.426 35.8937 166.024 35.2326C166.648 34.5394 167.143 33.7396 167.486 32.8709C167.849 31.9564 168.033 30.9796 168.027 29.9947" fill="#FBB91D"/>
<path fill-rule="evenodd" clip-rule="evenodd" d="M129.594 34.5237L135.598 45.9332H130.881L124.959 34.678H121.618V41.6096H117.305V18.3606H127.527C132.782 18.3606 135.44 21.161 135.44 26.421C135.44 30.736 133.724 33.7799 129.594 34.5237ZM121.618 22.9955V30.0116H127.907C130.28 30.0116 131.188 28.7472 131.188 26.4371C131.188 24.1465 130.222 22.9955 127.907 22.9955H121.618Z" fill="#87BC25"/>
<path fill-rule="evenodd" clip-rule="evenodd" d="M178.19 34.6787V45.9332H173.877V18.3606H187.545V22.9955H178.19V30.0444H186.076V34.6787H178.19Z" fill="#FBB91D"/>
<path fill-rule="evenodd" clip-rule="evenodd" d="M141.885 36.9753H151.03V41.6102H137.572V18.3606H149.531V22.9955H141.885V25.5558H149.531V30.1907H141.885V36.9753Z" fill="#87BC25"/>
<path fill-rule="evenodd" clip-rule="evenodd" d="M106.706 37.0411C110.501 37.0411 111.072 33.2634 111.072 30.1833V18.3606H115.384V30.0498C115.384 36.041 113.614 41.7739 106.722 41.7739C99.6586 41.7739 97.519 36.4676 97.519 30.1162V18.3606H101.832V30.184C101.832 33.6531 102.673 37.0417 106.707 37.0417" fill="#87BC25"/>
<path fill-rule="evenodd" clip-rule="evenodd" d="M83.3334 22.9955V41.6102H79.0209V22.9955H73.6836V18.3606H79.0209V14.9612H83.3334V18.3606H95.5972V22.9955H83.3334Z" fill="#87BC25"/>
<path fill-rule="evenodd" clip-rule="evenodd" d="M59.6787 28.1663V41.6102H55.3662V18.3606H58.1975L67.3302 31.8038V14.9612H71.5827V41.6102H68.8115L59.6787 28.1663Z" fill="#87BC25"/>
<path fill-rule="evenodd" clip-rule="evenodd" d="M44.1199 36.9753H53.2653V41.6102H39.8074V18.3606H51.766V22.9955H44.1199V25.5558H51.766V30.1907H44.1199V36.9753Z" fill="#87BC25"/>
<path fill-rule="evenodd" clip-rule="evenodd" d="M27.2536 34.3171L35.9745 14.9612H40.7408L27.3349 44.1906L15.4548 18.3606H19.9619L27.2536 34.3171Z" fill="#87BC25"/>
<path d="M134.498 15.8017C134.499 15.8312 134.497 15.8606 134.492 15.8896C134.489 15.91 134.482 15.9296 134.471 15.9473C134.463 15.9614 134.452 15.9729 134.437 15.9801C134.424 15.9877 134.408 15.9917 134.393 15.9915H133.514V17.8368C133.514 17.8431 133.512 17.8493 133.509 17.8549C133.506 17.8605 133.502 17.8653 133.497 17.869C133.479 17.8807 133.459 17.8886 133.438 17.8925C133.402 17.8991 133.365 17.9035 133.328 17.9059C133.281 17.9099 133.224 17.9112 133.156 17.9112C133.088 17.9112 133.029 17.9112 132.983 17.9059C132.946 17.9036 132.909 17.8991 132.873 17.8925C132.852 17.8888 132.832 17.8808 132.815 17.869C132.809 17.8655 132.805 17.8607 132.802 17.8551C132.799 17.8495 132.797 17.8432 132.797 17.8368V15.9915H131.918C131.902 15.9922 131.887 15.9884 131.873 15.9806C131.859 15.9728 131.847 15.9613 131.839 15.9473C131.829 15.9292 131.823 15.9098 131.819 15.8896C131.814 15.8606 131.812 15.8312 131.812 15.8017C131.812 15.7716 131.814 15.7415 131.819 15.7118C131.823 15.691 131.829 15.6709 131.839 15.6521C131.847 15.639 131.858 15.6282 131.872 15.6206C131.886 15.6136 131.902 15.6102 131.918 15.6106H134.393C134.408 15.6105 134.423 15.6139 134.437 15.6206C134.451 15.6274 134.463 15.6384 134.471 15.6521C134.482 15.6706 134.489 15.6908 134.492 15.7118C134.497 15.7415 134.499 15.7716 134.498 15.8017ZM125.953 16.7528C125.955 16.642 125.94 16.5316 125.91 16.4249C125.883 16.3294 125.832 16.2425 125.763 16.172C125.684 16.0963 125.589 16.0404 125.484 16.009C125.344 15.9671 125.197 15.9477 125.051 15.9513C124.902 15.948 124.754 15.9707 124.613 16.0184C124.506 16.0547 124.409 16.1137 124.327 16.1914C124.256 16.261 124.203 16.3475 124.174 16.443C124.144 16.542 124.129 16.6452 124.13 16.7488C124.128 16.8621 124.143 16.975 124.173 17.0842C124.2 17.1805 124.25 17.2686 124.32 17.3404C124.397 17.416 124.492 17.4715 124.595 17.5021C124.738 17.5426 124.885 17.5614 125.033 17.5578C125.181 17.5617 125.329 17.5402 125.47 17.494C125.577 17.4582 125.675 17.3989 125.756 17.3203C125.827 17.2492 125.879 17.1617 125.909 17.0654C125.939 16.9645 125.954 16.8596 125.953 16.7542M126.704 16.7307C126.707 16.9065 126.67 17.0806 126.596 17.2398C126.521 17.3922 126.41 17.5232 126.272 17.6208C126.111 17.7335 125.93 17.8145 125.739 17.8596C125.499 17.918 125.253 17.9457 125.006 17.9421C124.766 17.9455 124.526 17.9219 124.292 17.8717C124.109 17.835 123.936 17.7625 123.782 17.6584C123.649 17.5667 123.544 17.4409 123.477 17.2941C123.405 17.1293 123.371 16.9507 123.375 16.771C123.372 16.5982 123.409 16.4272 123.483 16.2712C123.558 16.1203 123.67 15.9907 123.807 15.8943C123.968 15.7816 124.149 15.7006 124.34 15.6555C124.58 15.5966 124.826 15.5687 125.073 15.5723C125.31 15.5686 125.546 15.5911 125.778 15.6394C125.96 15.676 126.133 15.748 126.287 15.8514C126.42 15.9421 126.527 16.0669 126.596 16.2129C126.67 16.3746 126.706 16.551 126.702 16.7287M123.275 15.8011C123.275 15.8305 123.273 15.8599 123.268 15.8889C123.265 15.9093 123.258 15.9289 123.247 15.9466C123.24 15.9606 123.228 15.972 123.213 15.9795C123.2 15.987 123.184 15.9909 123.169 15.9909H122.291V17.8361C122.29 17.8425 122.289 17.8488 122.285 17.8544C122.282 17.86 122.278 17.8648 122.273 17.8683C122.255 17.8801 122.235 17.8881 122.214 17.8918C122.178 17.8984 122.141 17.9029 122.104 17.9052C122.057 17.9092 122 17.9106 121.931 17.9106C121.863 17.9106 121.806 17.9106 121.759 17.9052C121.722 17.9029 121.685 17.8984 121.649 17.8918C121.628 17.8882 121.608 17.8802 121.59 17.8683C121.585 17.8647 121.581 17.86 121.578 17.8544C121.575 17.8487 121.573 17.8425 121.573 17.8361V15.9915H120.694C120.678 15.9918 120.662 15.9878 120.647 15.9801C120.634 15.972 120.623 15.9607 120.615 15.9473C120.605 15.9295 120.598 15.9099 120.595 15.8896C120.59 15.8606 120.588 15.8312 120.589 15.8017C120.588 15.7716 120.59 15.7415 120.595 15.7118C120.598 15.6909 120.605 15.6706 120.615 15.6521C120.623 15.6391 120.634 15.6282 120.647 15.6206C120.662 15.6137 120.678 15.6102 120.694 15.6106H123.169C123.184 15.6105 123.2 15.6139 123.213 15.6206C123.228 15.6275 123.239 15.6385 123.247 15.6521C123.258 15.6706 123.265 15.6908 123.268 15.7118C123.273 15.7415 123.275 15.7716 123.275 15.8017M120.174 17.7375C120.174 17.7635 120.167 17.7889 120.152 17.8106C120.137 17.8325 120.116 17.8506 120.093 17.8636C120.066 17.8787 120.037 17.8891 120.006 17.8945C119.973 17.9009 119.939 17.9041 119.905 17.9039H119.6C119.545 17.9044 119.489 17.9005 119.435 17.8925C119.39 17.8844 119.348 17.869 119.308 17.8468C119.266 17.8233 119.228 17.7934 119.195 17.7583C119.151 17.7125 119.111 17.6641 119.073 17.6134L118.201 16.5402C118.149 16.4765 118.099 16.4061 118.046 16.3343C117.993 16.2625 117.947 16.1887 117.905 16.119H117.899C117.907 16.2042 117.912 16.2887 117.916 16.3732C117.92 16.4577 117.921 16.5449 117.921 16.6341V17.8354C117.921 17.8415 117.92 17.8475 117.917 17.8531C117.915 17.8586 117.911 17.8636 117.907 17.8676C117.891 17.8789 117.874 17.8869 117.855 17.8911C117.822 17.899 117.789 17.904 117.756 17.9059C117.714 17.9099 117.66 17.9112 117.595 17.9112C117.53 17.9112 117.478 17.9112 117.437 17.9059C117.404 17.904 117.372 17.8991 117.34 17.8911C117.322 17.8879 117.304 17.8798 117.29 17.8676C117.282 17.8591 117.277 17.8476 117.276 17.8354V15.7776C117.276 15.7516 117.282 15.7259 117.296 15.7036C117.309 15.6813 117.328 15.6634 117.352 15.6521C117.408 15.6227 117.471 15.6084 117.535 15.6106H117.918C117.976 15.6099 118.034 15.6138 118.092 15.622C118.136 15.6288 118.178 15.6417 118.218 15.6602C118.257 15.6786 118.292 15.7036 118.323 15.734C118.359 15.7697 118.393 15.8086 118.423 15.85L119.106 16.6878L119.223 16.8374C119.262 16.8863 119.301 16.9353 119.335 16.9836C119.37 17.0319 119.407 17.0808 119.441 17.1285C119.476 17.1761 119.508 17.223 119.542 17.27C119.536 17.1875 119.532 17.101 119.529 17.0118C119.527 16.9225 119.525 16.836 119.525 16.7549V15.6817C119.526 15.6754 119.527 15.6692 119.53 15.6636C119.533 15.6581 119.537 15.6532 119.542 15.6495C119.558 15.6377 119.577 15.6293 119.596 15.6246C119.629 15.6163 119.663 15.6114 119.697 15.6099C119.739 15.6065 119.792 15.6059 119.857 15.6059C119.922 15.6059 119.971 15.6059 120.012 15.6099C120.045 15.611 120.077 15.616 120.109 15.6246C120.126 15.6295 120.142 15.6379 120.156 15.6495C120.161 15.6536 120.164 15.6586 120.167 15.6641C120.169 15.6696 120.17 15.6756 120.17 15.6817L120.174 17.7375ZM113.087 17.7375C113.087 17.7635 113.079 17.7889 113.065 17.8106C113.05 17.8325 113.029 17.8506 113.006 17.8636C112.979 17.8787 112.95 17.8891 112.919 17.8945C112.886 17.9009 112.852 17.9041 112.818 17.9039H112.513C112.458 17.9044 112.403 17.9006 112.348 17.8925C112.304 17.8845 112.261 17.8691 112.221 17.8468C112.179 17.8233 112.141 17.7934 112.108 17.7583C112.064 17.7125 112.023 17.6641 111.986 17.6134L111.114 16.5402C111.062 16.4765 111.012 16.4061 110.959 16.3343C110.906 16.2625 110.86 16.1887 110.818 16.119H110.812C110.82 16.2042 110.825 16.2887 110.829 16.3732C110.833 16.4577 110.834 16.5449 110.834 16.6341V17.8354C110.834 17.8415 110.833 17.8475 110.83 17.8531C110.828 17.8586 110.824 17.8636 110.82 17.8676C110.804 17.8789 110.786 17.8869 110.768 17.8911C110.735 17.899 110.702 17.904 110.668 17.9059C110.627 17.9099 110.573 17.9112 110.508 17.9112C110.443 17.9112 110.391 17.9112 110.35 17.9059C110.317 17.904 110.285 17.8991 110.253 17.8911C110.234 17.8879 110.217 17.8798 110.203 17.8676C110.195 17.8591 110.19 17.8476 110.189 17.8354V15.7776C110.188 15.7516 110.195 15.7259 110.208 15.7036C110.222 15.6813 110.241 15.6634 110.265 15.6521C110.321 15.6228 110.384 15.6084 110.448 15.6106H110.831C110.889 15.6099 110.947 15.6138 111.005 15.622C111.048 15.6288 111.091 15.6417 111.131 15.6602C111.17 15.6786 111.205 15.7036 111.235 15.734C111.272 15.7699 111.306 15.8087 111.336 15.85L112.019 16.6878C112.059 16.7381 112.098 16.7884 112.136 16.8374C112.175 16.8863 112.214 16.9353 112.249 16.9836C112.284 17.0319 112.32 17.0808 112.354 17.1285C112.388 17.1761 112.421 17.223 112.456 17.27C112.45 17.1875 112.446 17.101 112.443 17.0118C112.44 16.9225 112.439 16.836 112.439 16.7549V15.6817C112.439 15.6754 112.441 15.6692 112.444 15.6636C112.446 15.6581 112.451 15.6532 112.456 15.6495C112.472 15.6377 112.49 15.6293 112.51 15.6246C112.542 15.6163 112.576 15.6114 112.61 15.6099C112.652 15.6065 112.705 15.6059 112.771 15.6059C112.836 15.6059 112.885 15.6059 112.927 15.6099C112.959 15.611 112.991 15.616 113.023 15.6246C113.04 15.6295 113.056 15.6379 113.07 15.6495C113.074 15.6536 113.078 15.6586 113.08 15.6641C113.083 15.6696 113.084 15.6756 113.084 15.6817L113.087 17.7375ZM108.745 16.286C108.746 16.2504 108.74 16.215 108.726 16.1821C108.713 16.1492 108.692 16.1195 108.667 16.0948C108.593 16.0337 108.503 15.9954 108.408 15.9848C108.372 15.9795 108.331 15.9748 108.285 15.9714C108.239 15.9681 108.175 15.9661 108.093 15.9661H107.773V16.614H108.137C108.226 16.6154 108.316 16.6075 108.404 16.5905C108.47 16.578 108.534 16.5554 108.594 16.5235C108.64 16.4991 108.68 16.4636 108.709 16.4202C108.733 16.3799 108.746 16.3334 108.746 16.286M109.67 17.8422C109.67 17.8541 109.666 17.8657 109.658 17.875C109.644 17.8873 109.626 17.895 109.607 17.8972C109.568 17.9038 109.528 17.9079 109.488 17.9092C109.435 17.9092 109.364 17.9092 109.274 17.9092C109.197 17.9092 109.141 17.9092 109.092 17.9092C109.056 17.908 109.02 17.9035 108.985 17.8958C108.964 17.8922 108.945 17.8837 108.929 17.871C108.918 17.8603 108.909 17.8481 108.902 17.8348L108.585 17.3223C108.547 17.264 108.51 17.2123 108.474 17.1674C108.439 17.124 108.398 17.086 108.352 17.0547C108.305 17.024 108.252 17.0013 108.198 16.9876C108.132 16.9718 108.065 16.9641 107.998 16.9648H107.775V17.8368C107.774 17.8432 107.773 17.8496 107.77 17.8552C107.766 17.8608 107.762 17.8655 107.757 17.869C107.739 17.8809 107.719 17.8889 107.699 17.8925C107.663 17.8991 107.626 17.9036 107.59 17.9059C107.545 17.9099 107.487 17.9112 107.418 17.9112C107.349 17.9112 107.291 17.9112 107.245 17.9059C107.209 17.9036 107.172 17.8992 107.136 17.8925C107.116 17.8894 107.096 17.8813 107.08 17.869C107.075 17.8653 107.07 17.8604 107.068 17.8548C107.065 17.8493 107.063 17.8431 107.063 17.8368V15.7575C107.061 15.7348 107.066 15.7121 107.077 15.6922C107.088 15.6723 107.104 15.6561 107.124 15.6454C107.17 15.6208 107.222 15.6087 107.274 15.6106H108.184C108.276 15.6106 108.353 15.6106 108.412 15.6146C108.472 15.6186 108.526 15.6199 108.575 15.6226C108.704 15.6337 108.831 15.6562 108.956 15.6897C109.058 15.7163 109.155 15.7584 109.244 15.8145C109.318 15.8599 109.38 15.9219 109.425 15.9956C109.468 16.069 109.489 16.1528 109.487 16.2377C109.488 16.3097 109.473 16.3809 109.443 16.4463C109.411 16.5115 109.366 16.5691 109.31 16.6153C109.245 16.6689 109.173 16.7123 109.096 16.7441C109.002 16.7832 108.904 16.8129 108.804 16.8327C108.855 16.8484 108.905 16.8683 108.953 16.8924C109 16.916 109.045 16.9451 109.086 16.9789C109.128 17.0137 109.167 17.0523 109.202 17.0943C109.24 17.1407 109.276 17.1895 109.308 17.2405L109.605 17.6926C109.625 17.7244 109.643 17.7573 109.659 17.7912C109.667 17.8064 109.672 17.823 109.673 17.8401M106.298 17.0466C106.3 17.1784 106.267 17.3084 106.203 17.4229C106.135 17.5391 106.039 17.6361 105.924 17.7046C105.783 17.7881 105.629 17.8473 105.468 17.8797C105.263 17.9223 105.053 17.9426 104.843 17.9401C104.644 17.942 104.445 17.924 104.25 17.8864C104.093 17.8573 103.942 17.802 103.804 17.7228C103.689 17.6569 103.594 17.5627 103.525 17.4491C103.459 17.3326 103.426 17.2002 103.429 17.0661V15.6743C103.429 15.6679 103.431 15.6618 103.434 15.6562C103.437 15.6506 103.441 15.6458 103.446 15.6421C103.463 15.6301 103.483 15.6223 103.503 15.6193C103.54 15.6124 103.577 15.6077 103.614 15.6052C103.658 15.6018 103.717 15.5998 103.787 15.5998C103.857 15.5998 103.912 15.5998 103.956 15.6052C103.993 15.6077 104.029 15.6124 104.065 15.6193C104.086 15.623 104.105 15.6308 104.123 15.6421C104.128 15.6457 104.133 15.6505 104.136 15.6561C104.139 15.6616 104.141 15.6679 104.141 15.6743V17.0265C104.139 17.1085 104.157 17.1898 104.193 17.2633C104.227 17.3304 104.278 17.3874 104.341 17.429C104.411 17.4754 104.489 17.5088 104.571 17.5276C104.67 17.55 104.771 17.5608 104.872 17.5598C104.973 17.561 105.075 17.5497 105.173 17.5262C105.254 17.5075 105.331 17.4743 105.4 17.4283C105.459 17.387 105.508 17.3323 105.542 17.2687C105.576 17.2022 105.594 17.1282 105.592 17.0533V15.6743C105.593 15.668 105.594 15.6618 105.597 15.6563C105.6 15.6507 105.604 15.6458 105.609 15.6421C105.626 15.6302 105.645 15.6224 105.666 15.6193C105.702 15.6123 105.739 15.6076 105.776 15.6052C105.822 15.6018 105.88 15.5998 105.948 15.5998C106.017 15.5998 106.073 15.5998 106.117 15.6052C106.154 15.6077 106.19 15.6124 106.225 15.6193C106.245 15.6226 106.265 15.6304 106.281 15.6421C106.286 15.6458 106.29 15.6507 106.293 15.6563C106.296 15.6618 106.298 15.668 106.298 15.6743V17.0466ZM97.8789 17.213C97.8811 17.3272 97.8446 17.4389 97.7756 17.5296C97.7002 17.6254 97.6046 17.703 97.4957 17.757C97.3648 17.8207 97.2258 17.8658 97.0826 17.8911C96.9159 17.9229 96.7465 17.9384 96.5769 17.9374C96.4637 17.9379 96.3507 17.9312 96.2384 17.9173C96.1459 17.9061 96.054 17.8902 95.9632 17.8697C95.8952 17.855 95.8284 17.8355 95.7633 17.8113C95.7229 17.7974 95.6841 17.7794 95.6473 17.7576C95.6235 17.7417 95.6059 17.718 95.5973 17.6906C95.5856 17.6503 95.5807 17.6084 95.5827 17.5665C95.5821 17.5357 95.5839 17.505 95.588 17.4746C95.5903 17.4536 95.5962 17.4332 95.6053 17.4142C95.6128 17.4003 95.6242 17.3889 95.638 17.3813C95.6533 17.3744 95.6699 17.3712 95.6866 17.372C95.7239 17.3749 95.7603 17.385 95.7939 17.4015C95.8383 17.4207 95.8976 17.4431 95.9718 17.4685C96.0569 17.4965 96.1437 17.5189 96.2317 17.5356C96.3471 17.5565 96.4642 17.5664 96.5815 17.5651C96.6597 17.5659 96.7378 17.5592 96.8147 17.545C96.8759 17.5345 96.9351 17.5151 96.9906 17.4873C97.0344 17.4669 97.0724 17.4357 97.1013 17.3968C97.126 17.3612 97.1392 17.3188 97.1392 17.2754C97.1392 17.2493 97.1332 17.2237 97.1216 17.2004C97.1101 17.1771 97.0933 17.1568 97.0726 17.1412C97.0212 17.0993 96.9637 17.0658 96.902 17.0419C96.8242 17.01 96.7446 16.9829 96.6635 16.9608L96.3889 16.8803C96.295 16.8521 96.203 16.8199 96.1151 16.7837C96.0309 16.7507 95.951 16.7075 95.8772 16.6549C95.8091 16.6073 95.7509 16.5466 95.706 16.4765C95.6605 16.4029 95.6373 16.3176 95.6393 16.231C95.6376 16.1268 95.6707 16.025 95.7333 15.9419C95.8006 15.8548 95.8868 15.7841 95.9851 15.7353C96.1035 15.6764 96.2296 15.6348 96.3596 15.6119C96.5107 15.5844 96.6639 15.571 96.8174 15.5717C96.9006 15.5716 96.9838 15.5758 97.0666 15.5844C97.1499 15.5924 97.2279 15.6038 97.2998 15.6173C97.3718 15.6307 97.4331 15.6474 97.4931 15.6649C97.5316 15.6758 97.5689 15.6909 97.6043 15.7098C97.6176 15.718 97.6297 15.7279 97.6403 15.7393C97.6477 15.7495 97.6533 15.7608 97.657 15.7729C97.662 15.7895 97.6652 15.8066 97.6663 15.8239C97.6663 15.8446 97.6663 15.8695 97.6663 15.9003C97.6679 15.9291 97.6679 15.958 97.6663 15.9868C97.6638 16.0068 97.6591 16.0263 97.6523 16.0452C97.6471 16.0591 97.6375 16.0709 97.625 16.0787C97.6103 16.0867 97.5937 16.0904 97.577 16.0895C97.5444 16.0863 97.5124 16.0779 97.4824 16.0647C97.4391 16.0486 97.3851 16.0304 97.3225 16.0103C97.2499 15.9891 97.1763 15.9717 97.1019 15.958C97.0114 15.9413 96.9195 15.9332 96.8274 15.9339C96.759 15.9328 96.6906 15.9391 96.6235 15.9526C96.5731 15.9624 96.5244 15.9796 96.4789 16.0036C96.4438 16.0221 96.4138 16.0491 96.3916 16.0821C96.373 16.1111 96.3631 16.1448 96.363 16.1794C96.3631 16.2054 96.3691 16.231 96.3807 16.2543C96.3922 16.2775 96.409 16.2978 96.4296 16.3135C96.4808 16.3559 96.5387 16.3894 96.6008 16.4128C96.6806 16.4442 96.762 16.4713 96.8447 16.4939C96.9347 16.5194 97.0273 16.5463 97.1219 16.5744C97.2165 16.6026 97.3091 16.6348 97.3991 16.671C97.4845 16.7045 97.5659 16.7477 97.6416 16.7998C97.7097 16.8471 97.7681 16.9073 97.8136 16.9769C97.8586 17.0484 97.8817 17.1317 97.8802 17.2163M93.6863 16.0465L93.1966 17.0205H94.1827L93.6863 16.0465ZM95.2988 17.7275C95.3163 17.7593 95.3299 17.793 95.3395 17.8281C95.3427 17.8385 95.3423 17.8497 95.3385 17.8599C95.3346 17.8701 95.3274 17.8788 95.3181 17.8844C95.2846 17.8995 95.2483 17.9073 95.2115 17.9072C95.1616 17.9072 95.0909 17.9112 95.003 17.9112C94.915 17.9112 94.8377 17.9112 94.7871 17.9112C94.7473 17.9105 94.7077 17.9069 94.6685 17.9005C94.6482 17.8972 94.6288 17.8894 94.6118 17.8777C94.6 17.8679 94.5908 17.8552 94.5852 17.8408L94.3546 17.3807H93.0293L92.8074 17.8281C92.8005 17.8459 92.7889 17.8616 92.7739 17.8734C92.7589 17.8852 92.741 17.8927 92.7221 17.8951C92.6857 17.903 92.6487 17.9075 92.6115 17.9086C92.5629 17.9086 92.4996 17.9086 92.4223 17.9086C92.345 17.9086 92.2737 17.9086 92.2264 17.9032C92.1923 17.9035 92.1587 17.8947 92.1291 17.8777C92.12 17.8715 92.1133 17.8626 92.1098 17.8521C92.1063 17.8417 92.1063 17.8304 92.1098 17.82C92.1193 17.7854 92.1329 17.7521 92.1504 17.7207L93.2325 15.689C93.2423 15.668 93.2573 15.65 93.2761 15.6366C93.295 15.6232 93.3169 15.6149 93.3398 15.6126C93.3838 15.6044 93.4284 15.6001 93.4731 15.5998C93.5291 15.5998 93.6063 15.5998 93.6956 15.5998C93.8022 15.5998 93.8875 15.5998 93.9508 15.5998C94.0004 15.6001 94.0499 15.6044 94.0988 15.6126C94.126 15.6159 94.1521 15.6258 94.1747 15.6414C94.1916 15.6559 94.2051 15.674 94.214 15.6944L95.2988 17.7275ZM91.8559 17.7174C91.8565 17.7464 91.8542 17.7754 91.8492 17.8039C91.8459 17.8236 91.8389 17.8425 91.8286 17.8596C91.8204 17.8731 91.8086 17.884 91.7946 17.8911C91.7809 17.8977 91.7658 17.9009 91.7506 17.9005H89.9875C89.9354 17.9022 89.8838 17.8904 89.8376 17.8663C89.8176 17.8555 89.8012 17.8391 89.7904 17.8191C89.7795 17.7991 89.7746 17.7763 89.7763 17.7536V15.7575C89.7745 15.7348 89.7794 15.7121 89.7903 15.6922C89.8012 15.6723 89.8176 15.6561 89.8376 15.6454C89.8836 15.6208 89.9353 15.6087 89.9875 15.6106H91.7419C91.7569 15.6106 91.7716 15.6138 91.7853 15.6199C91.7987 15.627 91.81 15.6377 91.8179 15.6508C91.8273 15.6685 91.8341 15.6875 91.8379 15.7071C91.8429 15.7364 91.8451 15.766 91.8446 15.7957C91.845 15.824 91.8428 15.8523 91.8379 15.8802C91.8348 15.8999 91.828 15.9187 91.8179 15.9359C91.8098 15.9488 91.7986 15.9594 91.7853 15.9667C91.7718 15.9734 91.757 15.9769 91.7419 15.9768H90.4879V16.5349H91.5447C91.5599 16.5343 91.575 16.5375 91.5887 16.5442C91.6028 16.5508 91.6148 16.5613 91.6233 16.5744C91.6336 16.5912 91.6404 16.6099 91.6433 16.6294C91.6522 16.6852 91.6522 16.742 91.6433 16.7978C91.6404 16.8169 91.6336 16.8351 91.6233 16.8514C91.615 16.8646 91.6029 16.8748 91.5887 16.881C91.5748 16.8868 91.5598 16.8898 91.5447 16.8897H90.4879V17.5349H91.7539C91.7691 17.5344 91.7843 17.5376 91.7979 17.5443C91.8121 17.5513 91.8239 17.5622 91.8319 17.5759C91.8423 17.5929 91.8493 17.6118 91.8526 17.6315C91.8575 17.6599 91.8598 17.6886 91.8592 17.7174M88.4543 16.7381C88.4552 16.6343 88.4353 16.5314 88.3956 16.4356C88.3552 16.3401 88.2906 16.2568 88.2084 16.1941C88.1089 16.1191 87.9957 16.0646 87.8752 16.0338C87.7008 15.9913 87.5216 15.9722 87.3422 15.9768H86.9817V17.5309H87.3562C87.5223 17.5343 87.6883 17.5176 87.8506 17.4813C87.9703 17.4543 88.0836 17.4037 88.1837 17.3324C88.2705 17.2683 88.3393 17.1828 88.3836 17.0842C88.4298 16.9748 88.4525 16.8569 88.4503 16.7381M89.1899 16.722C89.1948 16.9088 89.1514 17.0937 89.064 17.2586C88.9768 17.4101 88.8518 17.5361 88.7015 17.6242C88.5231 17.7257 88.3289 17.7958 88.1271 17.8314C87.8611 17.8794 87.5911 17.9019 87.3208 17.8985H86.4826C86.4301 17.9002 86.3781 17.8884 86.3313 17.8643C86.3116 17.8533 86.2954 17.8369 86.2846 17.8169C86.2739 17.7969 86.269 17.7743 86.2707 17.7516V15.7575C86.269 15.7349 86.2738 15.7123 86.2846 15.6924C86.2953 15.6726 86.3116 15.6562 86.3313 15.6454C86.3779 15.6208 86.43 15.6087 86.4826 15.6106H87.3835C87.6518 15.6061 87.9198 15.6302 88.1831 15.6823C88.3774 15.721 88.5637 15.7927 88.7341 15.8943C88.875 15.9798 88.9923 16.0995 89.0753 16.2424C89.1558 16.389 89.1963 16.5545 89.1926 16.722M131.583 17.0419C131.585 17.1847 131.54 17.3241 131.454 17.4377C131.36 17.5574 131.24 17.6546 131.104 17.7221C130.941 17.8024 130.767 17.8599 130.588 17.8931C130.24 17.957 129.884 17.9679 129.532 17.9253C129.416 17.9116 129.302 17.8916 129.188 17.8656C129.103 17.8477 129.019 17.8235 128.938 17.7932C128.888 17.7754 128.839 17.7529 128.793 17.7261C128.763 17.7056 128.741 17.6762 128.73 17.6423C128.716 17.5917 128.71 17.5392 128.712 17.4867C128.712 17.4483 128.714 17.41 128.719 17.372C128.722 17.3458 128.729 17.3204 128.741 17.2968C128.75 17.2795 128.764 17.2652 128.781 17.2559C128.8 17.2475 128.821 17.2434 128.842 17.2438C128.888 17.2478 128.933 17.2603 128.975 17.2807C129.033 17.3049 129.109 17.3324 129.198 17.3619C129.305 17.3951 129.413 17.4219 129.523 17.4424C129.667 17.4687 129.814 17.4811 129.96 17.4793C130.058 17.4804 130.156 17.472 130.252 17.4545C130.328 17.4407 130.403 17.4165 130.472 17.3827C130.527 17.3566 130.574 17.3174 130.61 17.2687C130.641 17.2244 130.658 17.1714 130.658 17.1171C130.658 17.0848 130.65 17.0531 130.636 17.0241C130.622 16.9952 130.602 16.9699 130.576 16.95C130.512 16.8978 130.44 16.8562 130.363 16.8266C130.266 16.7868 130.167 16.7527 130.065 16.7247C129.955 16.6932 129.841 16.6576 129.723 16.6241C129.607 16.5897 129.492 16.5494 129.38 16.5033C129.274 16.4622 129.174 16.4081 129.082 16.3423C128.997 16.2831 128.924 16.2074 128.869 16.1197C128.813 16.0273 128.785 15.9205 128.788 15.8125C128.786 15.6823 128.827 15.5552 128.905 15.4509C128.989 15.3423 129.097 15.2541 129.22 15.1927C129.367 15.1192 129.524 15.0675 129.686 15.0391C129.978 14.987 130.275 14.9753 130.57 15.0042C130.674 15.0143 130.77 15.0283 130.862 15.0458C130.944 15.0614 131.024 15.0814 131.104 15.1055C131.151 15.1192 131.198 15.1379 131.242 15.1612C131.259 15.1713 131.274 15.1837 131.287 15.198C131.297 15.2106 131.304 15.2247 131.308 15.2396C131.315 15.2614 131.319 15.2839 131.32 15.3067C131.32 15.3322 131.32 15.3644 131.32 15.4026C131.32 15.4387 131.319 15.4747 131.315 15.5106C131.313 15.5357 131.307 15.5603 131.298 15.5837C131.292 15.6009 131.28 15.6155 131.264 15.6253C131.246 15.635 131.225 15.6397 131.204 15.6387C131.163 15.6344 131.124 15.624 131.086 15.6079C131.032 15.5878 130.965 15.5649 130.886 15.5408C130.796 15.5134 130.704 15.491 130.61 15.4737C130.498 15.4524 130.383 15.4423 130.268 15.4435C130.182 15.4422 130.097 15.4501 130.013 15.467C129.95 15.4792 129.889 15.5006 129.832 15.5307C129.788 15.5535 129.75 15.5872 129.723 15.6287C129.7 15.6651 129.687 15.7074 129.687 15.7507C129.687 15.7825 129.695 15.8137 129.709 15.8421C129.723 15.8706 129.743 15.8955 129.768 15.9151C129.831 15.9683 129.904 16.0105 129.981 16.0398C130.081 16.0786 130.183 16.1121 130.287 16.1405L130.632 16.2411C130.751 16.2764 130.867 16.3166 130.979 16.3618C131.086 16.4038 131.188 16.4581 131.283 16.5235C131.368 16.5826 131.44 16.6578 131.497 16.7448C131.552 16.8343 131.581 16.9384 131.578 17.044M116.416 17.8234C116.416 17.8313 116.414 17.8391 116.41 17.8461C116.406 17.8531 116.401 17.8591 116.394 17.8636C116.372 17.8776 116.347 17.8872 116.321 17.8918C116.277 17.9003 116.232 17.9061 116.188 17.9092C116.131 17.9139 116.054 17.9159 115.97 17.9159C115.885 17.9159 115.813 17.9159 115.755 17.9092C115.708 17.9063 115.662 17.9005 115.617 17.8918C115.591 17.8873 115.566 17.8777 115.544 17.8636C115.537 17.8591 115.532 17.8532 115.528 17.8462C115.524 17.8392 115.522 17.8314 115.521 17.8234V15.1176C115.522 15.1095 115.524 15.1017 115.528 15.0947C115.532 15.0877 115.537 15.0817 115.544 15.0773C115.567 15.0626 115.592 15.053 115.619 15.0491C115.663 15.0401 115.707 15.0343 115.752 15.0317C115.809 15.027 115.881 15.0243 115.966 15.0243C116.052 15.0243 116.128 15.0243 116.184 15.0317C116.229 15.0342 116.274 15.04 116.318 15.0491C116.344 15.0534 116.369 15.063 116.391 15.0773C116.398 15.0817 116.403 15.0877 116.407 15.0947C116.411 15.1017 116.413 15.1096 116.413 15.1176L116.416 17.8234ZM103.002 15.2785C103.003 15.3156 103.001 15.3526 102.995 15.3892C102.991 15.4148 102.982 15.4394 102.969 15.4616C102.959 15.4791 102.944 15.4934 102.926 15.5026C102.909 15.5115 102.89 15.5161 102.871 15.516H101.772V17.8234C101.772 17.8313 101.77 17.8391 101.766 17.8461C101.762 17.8531 101.757 17.8591 101.75 17.8636C101.728 17.8777 101.703 17.8873 101.678 17.8918C101.632 17.9005 101.586 17.9063 101.54 17.9092C101.482 17.9139 101.406 17.9159 101.324 17.9159C101.243 17.9159 101.167 17.9159 101.109 17.9092C101.063 17.9063 101.016 17.9005 100.971 17.8918C100.945 17.8871 100.92 17.8775 100.898 17.8636C100.891 17.8591 100.886 17.8531 100.882 17.8461C100.878 17.8391 100.876 17.8313 100.876 17.8234V15.516H99.7779C99.7578 15.5165 99.7378 15.5119 99.7199 15.5026C99.7031 15.4927 99.6891 15.4786 99.6793 15.4616C99.6666 15.4392 99.6581 15.4147 99.654 15.3892C99.6476 15.3527 99.6447 15.3156 99.6453 15.2785C99.6447 15.241 99.6476 15.2035 99.654 15.1665C99.6592 15.1401 99.6692 15.1149 99.6833 15.0921C99.6929 15.0753 99.707 15.0616 99.7239 15.0525C99.742 15.0437 99.7619 15.0395 99.7819 15.0404H102.875C102.894 15.04 102.913 15.0442 102.93 15.0525C102.948 15.061 102.963 15.0748 102.973 15.0921C102.986 15.115 102.995 15.1403 102.999 15.1665C103.005 15.2036 103.007 15.241 103.006 15.2785M85.4111 17.8234C85.4109 17.8313 85.4087 17.8391 85.4049 17.8461C85.4011 17.8531 85.3957 17.8591 85.3891 17.8636C85.367 17.8777 85.3423 17.8873 85.3165 17.8918C85.2725 17.9003 85.228 17.9061 85.1832 17.9092C85.1266 17.9139 85.05 17.9159 84.9654 17.9159C84.8807 17.9159 84.8081 17.9159 84.7501 17.9092C84.7038 17.9063 84.6578 17.9005 84.6122 17.8918C84.5864 17.8873 84.5617 17.8777 84.5396 17.8636C84.533 17.8591 84.5276 17.8531 84.5238 17.8461C84.52 17.8391 84.5179 17.8313 84.5176 17.8234V15.1176C84.5178 15.1096 84.5198 15.1017 84.5237 15.0947C84.5275 15.0877 84.5329 15.0817 84.5396 15.0773C84.5624 15.0626 84.588 15.053 84.6149 15.0491C84.6588 15.0401 84.7033 15.0343 84.7481 15.0317C84.8048 15.027 84.8767 15.0243 84.962 15.0243C85.0473 15.0243 85.1233 15.0243 85.1799 15.0317C85.2247 15.0342 85.2692 15.04 85.3132 15.0491C85.339 15.0534 85.3638 15.063 85.3858 15.0773C85.3924 15.0817 85.3979 15.0877 85.4017 15.0947C85.4055 15.1017 85.4076 15.1096 85.4078 15.1176L85.4111 17.8234Z" fill="#FBB91D"/>
<path d="M148.97 16.3404C148.974 16.2673 148.95 16.1956 148.904 16.1391C148.861 16.0873 148.805 16.0475 148.742 16.0238C148.678 15.9986 148.611 15.9828 148.543 15.9768C148.472 15.9701 148.4 15.9668 148.325 15.9668H148.019V16.7455H148.341C148.438 16.7474 148.535 16.7373 148.63 16.7153C148.698 16.6996 148.762 16.6709 148.82 16.6308C148.867 16.5974 148.905 16.5532 148.932 16.502C148.957 16.4511 148.97 16.3947 148.97 16.3377M149.715 16.3035C149.717 16.4241 149.685 16.543 149.622 16.6456C149.555 16.7503 149.464 16.8366 149.355 16.8964C149.22 16.9706 149.074 17.0229 148.922 17.0514C148.723 17.0894 148.519 17.1071 148.316 17.1044H148.022V17.8348C148.022 17.8411 148.02 17.8473 148.017 17.8528C148.014 17.8583 148.009 17.8629 148.004 17.8663C147.987 17.8783 147.967 17.8863 147.946 17.8898C147.91 17.8968 147.874 17.9012 147.838 17.9032C147.793 17.9072 147.735 17.9086 147.666 17.9086C147.596 17.9086 147.539 17.9086 147.493 17.9032C147.456 17.901 147.42 17.8965 147.384 17.8898C147.363 17.8867 147.344 17.8787 147.327 17.8663C147.322 17.8627 147.318 17.858 147.315 17.8525C147.312 17.8471 147.311 17.841 147.311 17.8348V15.7776C147.309 15.7526 147.315 15.7277 147.327 15.7056C147.338 15.6835 147.356 15.665 147.377 15.6522C147.431 15.6224 147.491 15.608 147.552 15.6106H148.381C148.464 15.6106 148.544 15.6106 148.619 15.6166C148.694 15.6227 148.784 15.63 148.89 15.6435C148.998 15.6579 149.105 15.6831 149.208 15.7186C149.307 15.7506 149.4 15.7976 149.485 15.8581C149.557 15.9095 149.616 15.9767 149.659 16.0546C149.699 16.1322 149.719 16.2186 149.718 16.3062M146.544 17.0473C146.546 17.1791 146.513 17.3091 146.448 17.4236C146.381 17.5398 146.285 17.6368 146.17 17.7053C146.029 17.7888 145.875 17.848 145.714 17.8804C145.508 17.923 145.299 17.9433 145.089 17.9408C144.89 17.9427 144.691 17.9247 144.495 17.8871C144.339 17.8579 144.188 17.8026 144.05 17.7235C143.935 17.6578 143.839 17.5635 143.772 17.4498C143.705 17.3333 143.672 17.2009 143.675 17.0668V15.6743C143.675 15.668 143.677 15.6619 143.68 15.6563C143.683 15.6508 143.687 15.6459 143.692 15.6421C143.709 15.6303 143.728 15.6225 143.749 15.6193C143.786 15.6124 143.822 15.6077 143.86 15.6052C143.904 15.6019 143.962 15.5999 144.032 15.5999C144.102 15.5999 144.157 15.5999 144.202 15.6052C144.239 15.6077 144.275 15.6124 144.311 15.6193C144.331 15.6231 144.351 15.6308 144.369 15.6421C144.374 15.6456 144.378 15.6504 144.382 15.656C144.385 15.6616 144.386 15.6679 144.387 15.6743V17.0265C144.385 17.1085 144.402 17.1898 144.439 17.2633C144.473 17.3304 144.524 17.3875 144.587 17.429C144.657 17.4753 144.735 17.5087 144.817 17.5276C144.916 17.55 145.017 17.5608 145.118 17.5598C145.219 17.561 145.32 17.5497 145.419 17.5263C145.5 17.5077 145.576 17.4745 145.645 17.4283C145.705 17.387 145.753 17.3324 145.788 17.2687C145.822 17.2022 145.839 17.1282 145.838 17.0534V15.6743C145.838 15.668 145.84 15.6619 145.843 15.6563C145.846 15.6508 145.85 15.6459 145.855 15.6421C145.871 15.6302 145.891 15.6224 145.911 15.6193C145.948 15.6124 145.984 15.6077 146.021 15.6052C146.068 15.6019 146.125 15.5999 146.194 15.5999C146.262 15.5999 146.319 15.5999 146.364 15.6052C146.4 15.6078 146.435 15.6125 146.471 15.6193C146.491 15.6226 146.511 15.6304 146.528 15.6421C146.532 15.646 146.536 15.6509 146.539 15.6564C146.542 15.662 146.544 15.6681 146.544 15.6743V17.0473ZM143.261 15.8017C143.262 15.8312 143.259 15.8606 143.255 15.8896C143.252 15.9101 143.245 15.9297 143.234 15.9473C143.226 15.9614 143.214 15.9729 143.2 15.9802C143.186 15.9878 143.171 15.9917 143.155 15.9916H142.277V17.8375C142.277 17.8437 142.275 17.8498 142.272 17.8552C142.269 17.8607 142.265 17.8654 142.26 17.869C142.242 17.8807 142.222 17.8887 142.201 17.8925C142.165 17.8991 142.128 17.9036 142.09 17.9059C142.045 17.9099 141.987 17.9113 141.919 17.9113C141.851 17.9113 141.792 17.9113 141.746 17.9059C141.709 17.9037 141.672 17.8992 141.636 17.8925C141.615 17.8889 141.595 17.8809 141.577 17.869C141.572 17.8655 141.568 17.8609 141.565 17.8554C141.562 17.8499 141.56 17.8438 141.559 17.8375V15.9916H140.681C140.665 15.9919 140.649 15.9879 140.635 15.9802C140.621 15.9722 140.61 15.9609 140.603 15.9473C140.592 15.9295 140.585 15.9099 140.582 15.8896C140.577 15.8606 140.575 15.8312 140.575 15.8017C140.575 15.7716 140.577 15.7416 140.582 15.7119C140.585 15.6909 140.592 15.6707 140.603 15.6522C140.61 15.6389 140.621 15.628 140.635 15.6206C140.649 15.6137 140.665 15.6102 140.681 15.6106H143.155C143.171 15.6104 143.186 15.6139 143.2 15.6206C143.214 15.6274 143.226 15.6384 143.234 15.6522C143.245 15.6705 143.252 15.6908 143.255 15.7119C143.259 15.7416 143.262 15.7716 143.261 15.8017ZM139.534 16.286C139.535 16.2504 139.529 16.215 139.515 16.1821C139.502 16.1492 139.481 16.1195 139.456 16.0949C139.382 16.0337 139.292 15.9955 139.197 15.9849C139.161 15.9795 139.121 15.9748 139.074 15.9715C139.027 15.9681 138.964 15.9661 138.882 15.9661H138.562V16.614H138.926C139.015 16.6154 139.105 16.6075 139.193 16.5906C139.259 16.5781 139.323 16.5555 139.383 16.5235C139.429 16.4991 139.469 16.4636 139.498 16.4202C139.523 16.3799 139.535 16.3334 139.535 16.286M140.457 17.8422C140.457 17.8541 140.453 17.8657 140.445 17.875C140.431 17.8873 140.413 17.895 140.394 17.8972C140.355 17.9039 140.315 17.9079 140.275 17.9093C140.222 17.9093 140.151 17.9093 140.061 17.9093C139.984 17.9093 139.928 17.9093 139.879 17.9093C139.843 17.908 139.807 17.9035 139.772 17.8958C139.751 17.8922 139.732 17.8837 139.716 17.871C139.705 17.8604 139.696 17.8482 139.689 17.8348L139.372 17.3223C139.334 17.264 139.297 17.2123 139.261 17.1674C139.226 17.124 139.185 17.0861 139.139 17.0547C139.092 17.024 139.04 17.0014 138.985 16.9876C138.919 16.9718 138.852 16.9642 138.785 16.9648H138.562V17.8402C138.561 17.8465 138.56 17.8527 138.557 17.8582C138.553 17.8637 138.549 17.8684 138.544 17.8717C138.526 17.8836 138.506 17.8916 138.486 17.8952C138.45 17.9018 138.413 17.9063 138.377 17.9086C138.332 17.9126 138.274 17.914 138.205 17.914C138.136 17.914 138.079 17.9139 138.033 17.9086C137.996 17.9064 137.959 17.9019 137.923 17.8952C137.903 17.8921 137.883 17.884 137.867 17.8717C137.862 17.8681 137.858 17.8634 137.855 17.8579C137.852 17.8524 137.85 17.8464 137.85 17.8402V15.7608C137.848 15.7382 137.853 15.7155 137.864 15.6956C137.875 15.6757 137.891 15.6595 137.911 15.6488C137.957 15.6241 138.009 15.6121 138.061 15.6139H138.971C139.063 15.6139 139.14 15.6139 139.199 15.618C139.259 15.622 139.313 15.6233 139.363 15.626C139.491 15.6371 139.618 15.6595 139.743 15.6931C139.845 15.7197 139.942 15.7618 140.032 15.8178C140.105 15.8633 140.167 15.9253 140.212 15.999C140.255 16.0724 140.276 16.1562 140.274 16.2411C140.275 16.313 140.26 16.3843 140.23 16.4497C140.198 16.5149 140.153 16.5725 140.097 16.6187C140.032 16.6723 139.96 16.7157 139.883 16.7475C139.789 16.7866 139.691 16.8162 139.591 16.8361C139.642 16.852 139.692 16.872 139.74 16.8957C139.787 16.9197 139.832 16.9487 139.873 16.9823C139.915 17.0171 139.954 17.0557 139.989 17.0976C140.027 17.144 140.063 17.1929 140.095 17.2439L140.392 17.696C140.412 17.7277 140.43 17.7607 140.446 17.7946C140.454 17.8098 140.459 17.8264 140.46 17.8435M135.747 16.0493L135.258 17.0232H136.243L135.747 16.0493ZM137.36 17.7302C137.377 17.762 137.391 17.7957 137.4 17.8308C137.403 17.8412 137.403 17.8524 137.399 17.8626C137.395 17.8729 137.388 17.8815 137.379 17.8871C137.345 17.9022 137.309 17.91 137.272 17.9099C137.222 17.9099 137.152 17.914 137.064 17.914C136.976 17.914 136.899 17.914 136.848 17.914C136.808 17.9132 136.769 17.9096 136.73 17.9032C136.709 17.9 136.69 17.8922 136.673 17.8804C136.661 17.8704 136.652 17.8578 136.646 17.8435L136.415 17.3834H135.09L134.869 17.8308C134.862 17.8486 134.85 17.8642 134.835 17.876C134.82 17.8878 134.802 17.8953 134.783 17.8979C134.746 17.9057 134.709 17.9102 134.672 17.9113C134.624 17.9113 134.561 17.9113 134.483 17.9113C134.405 17.9113 134.334 17.9113 134.288 17.9059C134.254 17.9063 134.22 17.8975 134.19 17.8804C134.181 17.8742 134.175 17.8652 134.171 17.8549C134.167 17.8445 134.167 17.8332 134.17 17.8227C134.18 17.7881 134.194 17.7548 134.212 17.7235L135.294 15.6917C135.304 15.6708 135.319 15.6528 135.337 15.6394C135.356 15.626 135.378 15.6177 135.401 15.6153C135.444 15.6071 135.489 15.6029 135.534 15.6025C135.589 15.6025 135.663 15.6025 135.756 15.6025C135.863 15.6025 135.948 15.6025 136.011 15.6025C136.061 15.6028 136.11 15.6071 136.159 15.6153C136.187 15.6189 136.213 15.6288 136.235 15.6441C136.252 15.6588 136.265 15.6769 136.274 15.6971L137.36 17.7302Z" fill="#FBB91D"/>
<path fill-rule="evenodd" clip-rule="evenodd" d="M24.2958 22.7936V27.0415L21.4419 20.8477V17.8588C22.386 17.9539 23.3385 17.9205 24.2738 17.7596L24.2958 17.7555V20.8001L22.8698 22.7936H24.2958ZM28.577 18.3606L27.151 20.352H28.577V30.5334L27.2443 33.429L25.7204 30.137V22.7909H27.1484L25.7204 20.8041V17.4188C26.7205 17.1147 27.6791 16.6866 28.5743 16.1444L28.577 18.3606ZM32.8588 12.0669V21.2448L30.0036 27.4392V20.3547H31.4322L30.0036 18.3619V15.1483C31.1034 14.2711 32.066 13.2323 32.8588 12.0669Z" fill="#FBB91D"/>
</g>
<mask id="mask1_1_5" style="mask-type:luminance" maskUnits="userSpaceOnUse" x="0" y="0" width="203" height="58">
<path d="M203 0H0V58H203V0Z" fill="white"/>
</mask>
<g mask="url(#mask1_1_5)">
<path d="M192.87 18.5236C192.871 18.5379 192.867 18.5519 192.859 18.5638C192.847 18.5768 192.832 18.5865 192.816 18.592C192.789 18.6 192.762 18.6056 192.734 18.6088C192.648 18.6186 192.562 18.6186 192.476 18.6088C192.448 18.6055 192.421 18.5999 192.395 18.592C192.378 18.5864 192.364 18.5767 192.353 18.5638C192.344 18.5522 192.339 18.5381 192.339 18.5236V16.2162H192.335L191.541 18.5216C191.536 18.5392 191.527 18.5553 191.514 18.5685C191.499 18.5822 191.481 18.5925 191.462 18.5987C191.435 18.606 191.407 18.6107 191.378 18.6128C191.345 18.6128 191.303 18.6162 191.255 18.6162C191.214 18.6165 191.172 18.6145 191.131 18.6101C191.103 18.6078 191.075 18.602 191.048 18.5927C191.029 18.5858 191.011 18.5761 190.995 18.5638C190.983 18.5522 190.975 18.5377 190.97 18.5216L190.204 16.2162H190.2V18.5236C190.2 18.5379 190.196 18.5519 190.188 18.5638C190.176 18.577 190.161 18.5867 190.144 18.592C190.117 18.5997 190.09 18.6053 190.062 18.6088C190.019 18.6145 189.977 18.617 189.934 18.6162C189.891 18.6169 189.847 18.6144 189.805 18.6088C189.777 18.6054 189.749 18.5998 189.723 18.592C189.706 18.5866 189.692 18.5768 189.68 18.5638C189.673 18.5517 189.669 18.5378 189.669 18.5236V15.9982C189.666 15.9672 189.67 15.9361 189.68 15.9066C189.69 15.8771 189.706 15.8499 189.726 15.8265C189.746 15.8065 189.77 15.791 189.797 15.781C189.823 15.7709 189.852 15.7665 189.88 15.7681H190.245C190.301 15.7669 190.358 15.7723 190.413 15.7842C190.457 15.7932 190.499 15.8118 190.535 15.8386C190.57 15.8656 190.599 15.9002 190.62 15.9399C190.645 15.9888 190.665 16.0406 190.68 16.0941L191.272 17.7831H191.281L191.894 16.0982C191.909 16.0444 191.929 15.9923 191.954 15.9425C191.974 15.9044 192 15.8699 192.031 15.8406C192.06 15.8141 192.095 15.7949 192.133 15.7842C192.179 15.7726 192.225 15.7672 192.272 15.7681H192.649C192.683 15.7672 192.716 15.7722 192.748 15.7829C192.773 15.7923 192.796 15.8079 192.814 15.8285C192.833 15.8491 192.847 15.8733 192.855 15.8996C192.865 15.9315 192.87 15.9648 192.869 15.9982L192.87 18.5236ZM189.339 16.0043C189.34 16.0405 189.338 16.0768 189.334 16.1129C189.332 16.1375 189.327 16.1617 189.318 16.1847C189.313 16.2007 189.304 16.2149 189.292 16.2256C189.282 16.2338 189.27 16.2383 189.257 16.2383H188.572V18.5236C188.572 18.5383 188.567 18.5525 188.558 18.5638C188.545 18.577 188.53 18.5867 188.513 18.592C188.484 18.5999 188.456 18.6055 188.427 18.6088C188.337 18.6186 188.246 18.6186 188.156 18.6088C188.127 18.6056 188.098 18.6 188.07 18.592C188.053 18.5865 188.037 18.5768 188.024 18.5638C188.016 18.5522 188.011 18.5381 188.011 18.5236V16.2383H187.323C187.31 16.2386 187.297 16.2341 187.287 16.2256C187.276 16.2139 187.267 16.1999 187.262 16.1847C187.254 16.1615 187.248 16.1374 187.246 16.1129C187.242 16.0768 187.24 16.0406 187.241 16.0043C187.24 15.9668 187.242 15.9294 187.246 15.8922C187.248 15.8673 187.254 15.8428 187.262 15.8191C187.267 15.8045 187.276 15.7912 187.287 15.7802C187.297 15.7716 187.31 15.7673 187.323 15.7681H189.26C189.272 15.7677 189.285 15.772 189.294 15.7802C189.307 15.7902 189.316 15.8038 189.32 15.8191C189.329 15.8425 189.335 15.8672 189.337 15.8922C189.341 15.9294 189.342 15.9669 189.342 16.0043" fill="#1D1D1B"/>
</g>
</g>
<defs>
<clipPath id="clip0_1_5">
<rect width="203" height="58" fill="white"/>
</clipPath>
</defs>
</svg>
